<svg xmlns="http://www.w3.org/2000/svg" width="1440" height="820" viewBox="0 0 1440 820" font-family="Helvetica, Arial, sans-serif">
<defs><marker id="arrow" viewBox="0 0 10 10" refX="9" refY="5" markerWidth="7" markerHeight="7" orient="auto-start-reverse"><path d="M 0 0 L 10 5 L 0 10 z" fill="#333"/></marker></defs>
<rect width="1440" height="820" fill="#fff"/>
<text x="720.0" y="34" font-size="22" fill="#111" font-weight="bold" text-anchor="middle" font-family="Helvetica, Arial, sans-serif">One task, one agent, one assessment: the Kenya forecast revision</text>
<text x="720.0" y="58" font-size="14" fill="#555" font-weight="normal" text-anchor="middle" font-family="Helvetica, Arial, sans-serif">A real attempt by gpt-6-luna on 6 October 2026, instance service-area, weeks 1–2</text>
<rect x="24" y="80" width="330" height="600" rx="10" fill="#dbeafe" stroke="#2563eb" stroke-width="2"/><rect x="24" y="80" width="330" height="40" rx="10" fill="#2563eb"/><rect x="24" y="108" width="330" height="12" fill="#2563eb"/><text x="38" y="107" fill="#fff" font-size="19" font-weight="bold">1</text><text x="64" y="107" fill="#fff" font-size="19" font-weight="bold">The task</text>
<text x="38" y="148" font-size="13" fill="#2563eb" font-weight="bold" text-anchor="start" font-family="Helvetica, Arial, sans-serif">Brief (131 words)</text>
<text x="38" y="170" font-size="13" fill="#111" font-weight="normal" text-anchor="start" font-family="Helvetica, Arial, sans-serif">Two ECMWF forecasts, issued 20 and 27 Sep.</text>
<text x="38" y="188" font-size="13" fill="#111" font-weight="normal" text-anchor="start" font-family="Helvetica, Arial, sans-serif">Over 5°S–5°N, 34–42°E, for the 7 days from 27 Sep</text>
<text x="38" y="206" font-size="13" fill="#111" font-weight="normal" text-anchor="start" font-family="Helvetica, Arial, sans-serif">and from 4 Oct: how did the forecast change?</text>
<text x="38" y="224" font-size="13" fill="#111" font-weight="normal" text-anchor="start" font-family="Helvetica, Arial, sans-serif">Give the mean totals, the change, the area-weighted</text>
<text x="38" y="242" font-size="13" fill="#111" font-weight="normal" text-anchor="start" font-family="Helvetica, Arial, sans-serif">regional change, and say wetter or drier.</text>
<text x="38" y="280" font-size="13" fill="#2563eb" font-weight="bold" text-anchor="start" font-family="Helvetica, Arial, sans-serif">Data: raw provider exports, 101 members, 47 days</text>
<rect x="44.0" y="310.0" width="22.0" height="22.0" fill="#a6b4df" stroke="#fff" stroke-width="0.8"/>
<rect x="66.0" y="310.0" width="22.0" height="22.0" fill="#afbce2" stroke="#fff" stroke-width="0.8"/>
<rect x="88.0" y="310.0" width="22.0" height="22.0" fill="#8a9cd5" stroke="#fff" stroke-width="0.8"/>
<rect x="110.0" y="310.0" width="22.0" height="22.0" fill="#516bc1" stroke="#fff" stroke-width="0.8"/>
<rect x="132.0" y="310.0" width="22.0" height="22.0" fill="#425fbc" stroke="#fff" stroke-width="0.8"/>
<rect x="154.0" y="310.0" width="22.0" height="22.0" fill="#6980c9" stroke="#fff" stroke-width="0.8"/>
<rect x="44.0" y="332.0" width="22.0" height="22.0" fill="#a8b6e0" stroke="#fff" stroke-width="0.8"/>
<rect x="66.0" y="332.0" width="22.0" height="22.0" fill="#e5eaf5" stroke="#fff" stroke-width="0.8"/>
<rect x="88.0" y="332.0" width="22.0" height="22.0" fill="#dfe4f3" stroke="#fff" stroke-width="0.8"/>
<rect x="110.0" y="332.0" width="22.0" height="22.0" fill="#6980ca" stroke="#fff" stroke-width="0.8"/>
<rect x="132.0" y="332.0" width="22.0" height="22.0" fill="#7b8fd0" stroke="#fff" stroke-width="0.8"/>
<rect x="154.0" y="332.0" width="22.0" height="22.0" fill="#7d91d1" stroke="#fff" stroke-width="0.8"/>
<rect x="44.0" y="354.0" width="22.0" height="22.0" fill="#1e40af" stroke="#fff" stroke-width="0.8"/>
<rect x="66.0" y="354.0" width="22.0" height="22.0" fill="#abb8e1" stroke="#fff" stroke-width="0.8"/>
<rect x="88.0" y="354.0" width="22.0" height="22.0" fill="#c2cce9" stroke="#fff" stroke-width="0.8"/>
<rect x="110.0" y="354.0" width="22.0" height="22.0" fill="#bfcae8" stroke="#fff" stroke-width="0.8"/>
<rect x="132.0" y="354.0" width="22.0" height="22.0" fill="#a1b0dd" stroke="#fff" stroke-width="0.8"/>
<rect x="154.0" y="354.0" width="22.0" height="22.0" fill="#7c91d0" stroke="#fff" stroke-width="0.8"/>
<rect x="44.0" y="376.0" width="22.0" height="22.0" fill="#6d84cb" stroke="#fff" stroke-width="0.8"/>
<rect x="66.0" y="376.0" width="22.0" height="22.0" fill="#8094d2" stroke="#fff" stroke-width="0.8"/>
<rect x="88.0" y="376.0" width="22.0" height="22.0" fill="#6e85cb" stroke="#fff" stroke-width="0.8"/>
<rect x="110.0" y="376.0" width="22.0" height="22.0" fill="#c1cbe9" stroke="#fff" stroke-width="0.8"/>
<rect x="132.0" y="376.0" width="22.0" height="22.0" fill="#94a4d9" stroke="#fff" stroke-width="0.8"/>
<rect x="154.0" y="376.0" width="22.0" height="22.0" fill="#4f69c0" stroke="#fff" stroke-width="0.8"/>
<rect x="44.0" y="398.0" width="22.0" height="22.0" fill="#98a8da" stroke="#fff" stroke-width="0.8"/>
<rect x="66.0" y="398.0" width="22.0" height="22.0" fill="#d1d9ee" stroke="#fff" stroke-width="0.8"/>
<rect x="88.0" y="398.0" width="22.0" height="22.0" fill="#8497d3" stroke="#fff" stroke-width="0.8"/>
<rect x="110.0" y="398.0" width="22.0" height="22.0" fill="#a8b6e0" stroke="#fff" stroke-width="0.8"/>
<rect x="132.0" y="398.0" width="22.0" height="22.0" fill="#7086cc" stroke="#fff" stroke-width="0.8"/>
<rect x="154.0" y="398.0" width="22.0" height="22.0" fill="#3957b8" stroke="#fff" stroke-width="0.8"/>
<rect x="44.0" y="420.0" width="22.0" height="22.0" fill="#bdc8e7" stroke="#fff" stroke-width="0.8"/>
<rect x="66.0" y="420.0" width="22.0" height="22.0" fill="#c6cfea" stroke="#fff" stroke-width="0.8"/>
<rect x="88.0" y="420.0" width="22.0" height="22.0" fill="#b0bde3" stroke="#fff" stroke-width="0.8"/>
<rect x="110.0" y="420.0" width="22.0" height="22.0" fill="#aebbe2" stroke="#fff" stroke-width="0.8"/>
<rect x="132.0" y="420.0" width="22.0" height="22.0" fill="#4f6ac0" stroke="#fff" stroke-width="0.8"/>
<rect x="154.0" y="420.0" width="22.0" height="22.0" fill="#637bc7" stroke="#fff" stroke-width="0.8"/>
<rect x="44.0" y="442.0" width="22.0" height="22.0" fill="#e4e9f5" stroke="#fff" stroke-width="0.8"/>
<rect x="66.0" y="442.0" width="22.0" height="22.0" fill="#d1d9ee" stroke="#fff" stroke-width="0.8"/>
<rect x="88.0" y="442.0" width="22.0" height="22.0" fill="#b5c1e4" stroke="#fff" stroke-width="0.8"/>
<rect x="110.0" y="442.0" width="22.0" height="22.0" fill="#7086cc" stroke="#fff" stroke-width="0.8"/>
<rect x="132.0" y="442.0" width="22.0" height="22.0" fill="#879ad4" stroke="#fff" stroke-width="0.8"/>
<rect x="154.0" y="442.0" width="22.0" height="22.0" fill="#90a2d7" stroke="#fff" stroke-width="0.8"/>
<polygon points="47.7,319.5 75.5,313.7 150.3,329.8 150.3,411.9 123.9,455.9 100.5,431.0 49.1,401.7 46.2,372.3" fill="none" stroke="#111" stroke-width="1.6" stroke-dasharray="4 3"/>
<text x="110.0" y="482.0" font-size="12" fill="#111" font-weight="normal" text-anchor="middle" font-family="Helvetica, Arial, sans-serif">issued 20 Sep</text>
<text x="110.0" y="498.0" font-size="11" fill="#555" font-weight="normal" text-anchor="middle" font-family="Helvetica, Arial, sans-serif">7-day mean total, mm</text>
<rect x="204.0" y="310.0" width="22.0" height="22.0" fill="#d7def0" stroke="#fff" stroke-width="0.8"/>
<rect x="226.0" y="310.0" width="22.0" height="22.0" fill="#d6ddf0" stroke="#fff" stroke-width="0.8"/>
<rect x="248.0" y="310.0" width="22.0" height="22.0" fill="#b2bee3" stroke="#fff" stroke-width="0.8"/>
<rect x="270.0" y="310.0" width="22.0" height="22.0" fill="#7c90d0" stroke="#fff" stroke-width="0.8"/>
<rect x="292.0" y="310.0" width="22.0" height="22.0" fill="#687fc9" stroke="#fff" stroke-width="0.8"/>
<rect x="314.0" y="310.0" width="22.0" height="22.0" fill="#a4b2de" stroke="#fff" stroke-width="0.8"/>
<rect x="204.0" y="332.0" width="22.0" height="22.0" fill="#dce2f2" stroke="#fff" stroke-width="0.8"/>
<rect x="226.0" y="332.0" width="22.0" height="22.0" fill="#f2f5fa" stroke="#fff" stroke-width="0.8"/>
<rect x="248.0" y="332.0" width="22.0" height="22.0" fill="#ecf0f8" stroke="#fff" stroke-width="0.8"/>
<rect x="270.0" y="332.0" width="22.0" height="22.0" fill="#9dacdc" stroke="#fff" stroke-width="0.8"/>
<rect x="292.0" y="332.0" width="22.0" height="22.0" fill="#a0afdd" stroke="#fff" stroke-width="0.8"/>
<rect x="314.0" y="332.0" width="22.0" height="22.0" fill="#94a5d9" stroke="#fff" stroke-width="0.8"/>
<rect x="204.0" y="354.0" width="22.0" height="22.0" fill="#8d9ed6" stroke="#fff" stroke-width="0.8"/>
<rect x="226.0" y="354.0" width="22.0" height="22.0" fill="#e6ebf6" stroke="#fff" stroke-width="0.8"/>
<rect x="248.0" y="354.0" width="22.0" height="22.0" fill="#d7def0" stroke="#fff" stroke-width="0.8"/>
<rect x="270.0" y="354.0" width="22.0" height="22.0" fill="#ced6ed" stroke="#fff" stroke-width="0.8"/>
<rect x="292.0" y="354.0" width="22.0" height="22.0" fill="#a9b6e0" stroke="#fff" stroke-width="0.8"/>
<rect x="314.0" y="354.0" width="22.0" height="22.0" fill="#8296d2" stroke="#fff" stroke-width="0.8"/>
<rect x="204.0" y="376.0" width="22.0" height="22.0" fill="#a0afdd" stroke="#fff" stroke-width="0.8"/>
<rect x="226.0" y="376.0" width="22.0" height="22.0" fill="#dee4f3" stroke="#fff" stroke-width="0.8"/>
<rect x="248.0" y="376.0" width="22.0" height="22.0" fill="#a2b1de" stroke="#fff" stroke-width="0.8"/>
<rect x="270.0" y="376.0" width="22.0" height="22.0" fill="#c7d0eb" stroke="#fff" stroke-width="0.8"/>
<rect x="292.0" y="376.0" width="22.0" height="22.0" fill="#93a4d8" stroke="#fff" stroke-width="0.8"/>
<rect x="314.0" y="376.0" width="22.0" height="22.0" fill="#687fc9" stroke="#fff" stroke-width="0.8"/>
<rect x="204.0" y="398.0" width="22.0" height="22.0" fill="#dce2f2" stroke="#fff" stroke-width="0.8"/>
<rect x="226.0" y="398.0" width="22.0" height="22.0" fill="#e0e5f3" stroke="#fff" stroke-width="0.8"/>
<rect x="248.0" y="398.0" width="22.0" height="22.0" fill="#a3b1de" stroke="#fff" stroke-width="0.8"/>
<rect x="270.0" y="398.0" width="22.0" height="22.0" fill="#adbae1" stroke="#fff" stroke-width="0.8"/>
<rect x="292.0" y="398.0" width="22.0" height="22.0" fill="#7b90d0" stroke="#fff" stroke-width="0.8"/>
<rect x="314.0" y="398.0" width="22.0" height="22.0" fill="#3c5aba" stroke="#fff" stroke-width="0.8"/>
<rect x="204.0" y="420.0" width="22.0" height="22.0" fill="#dee4f3" stroke="#fff" stroke-width="0.8"/>
<rect x="226.0" y="420.0" width="22.0" height="22.0" fill="#d9e0f1" stroke="#fff" stroke-width="0.8"/>
<rect x="248.0" y="420.0" width="22.0" height="22.0" fill="#c4ceea" stroke="#fff" stroke-width="0.8"/>
<rect x="270.0" y="420.0" width="22.0" height="22.0" fill="#b8c3e5" stroke="#fff" stroke-width="0.8"/>
<rect x="292.0" y="420.0" width="22.0" height="22.0" fill="#3856b8" stroke="#fff" stroke-width="0.8"/>
<rect x="314.0" y="420.0" width="22.0" height="22.0" fill="#536dc2" stroke="#fff" stroke-width="0.8"/>
<rect x="204.0" y="442.0" width="22.0" height="22.0" fill="#eef2f9" stroke="#fff" stroke-width="0.8"/>
<rect x="226.0" y="442.0" width="22.0" height="22.0" fill="#e0e6f4" stroke="#fff" stroke-width="0.8"/>
<rect x="248.0" y="442.0" width="22.0" height="22.0" fill="#d0d8ee" stroke="#fff" stroke-width="0.8"/>
<rect x="270.0" y="442.0" width="22.0" height="22.0" fill="#8598d3" stroke="#fff" stroke-width="0.8"/>
<rect x="292.0" y="442.0" width="22.0" height="22.0" fill="#788dcf" stroke="#fff" stroke-width="0.8"/>
<rect x="314.0" y="442.0" width="22.0" height="22.0" fill="#889ad4" stroke="#fff" stroke-width="0.8"/>
<polygon points="207.7,319.5 235.5,313.7 310.3,329.8 310.3,411.9 283.9,455.9 260.5,431.0 209.1,401.7 206.2,372.3" fill="none" stroke="#111" stroke-width="1.6" stroke-dasharray="4 3"/>
<text x="270.0" y="482.0" font-size="12" fill="#111" font-weight="normal" text-anchor="middle" font-family="Helvetica, Arial, sans-serif">issued 27 Sep</text>
<text x="270.0" y="498.0" font-size="11" fill="#555" font-weight="normal" text-anchor="middle" font-family="Helvetica, Arial, sans-serif">7-day mean total, mm</text>
<text x="38" y="520" font-size="13" fill="#2563eb" font-weight="bold" text-anchor="start" font-family="Helvetica, Arial, sans-serif">What the brief does not say</text>
<text x="38" y="542" font-size="12" fill="#111" font-weight="normal" text-anchor="start" font-family="Helvetica, Arial, sans-serif">• that tp is accumulated since the start</text>
<text x="38" y="560" font-size="12" fill="#111" font-weight="normal" text-anchor="start" font-family="Helvetica, Arial, sans-serif">• whether to clip negative daily increments</text>
<text x="38" y="578" font-size="12" fill="#111" font-weight="normal" text-anchor="start" font-family="Helvetica, Arial, sans-serif">• that the two issues must be compared on the same dates</text>
<text x="38" y="596" font-size="12" fill="#111" font-weight="normal" text-anchor="start" font-family="Helvetica, Arial, sans-serif">• how to weight the regional mean</text>
<text x="38" y="614" font-size="12" fill="#111" font-weight="normal" text-anchor="start" font-family="Helvetica, Arial, sans-serif">These are the conventions. The spec lists each</text>
<text x="38" y="632" font-size="12" fill="#111" font-weight="normal" text-anchor="start" font-family="Helvetica, Arial, sans-serif">reading as accepted or as a named pitfall.</text>
<text x="38" y="665" font-size="12" fill="#555" font-weight="normal" text-anchor="start" font-family="Helvetica, Arial, sans-serif">Budget: 20 min, offline sandbox, no network</text>
<rect x="378" y="80" width="330" height="600" rx="10" fill="#dcfce7" stroke="#15803d" stroke-width="2"/><rect x="378" y="80" width="330" height="40" rx="10" fill="#15803d"/><rect x="378" y="108" width="330" height="12" fill="#15803d"/><text x="392" y="107" fill="#fff" font-size="19" font-weight="bold">2</text><text x="418" y="107" fill="#fff" font-size="19" font-weight="bold">The agent works</text>
<text x="392" y="148" font-size="13" fill="#15803d" font-weight="bold" text-anchor="start" font-family="Helvetica, Arial, sans-serif">52 s, 107,751 tokens, 1 of 1 attempt</text>
<text x="392" y="170" font-size="13" fill="#111" font-weight="normal" text-anchor="start" font-family="Helvetica, Arial, sans-serif">Opens the stores, finds tp is cumulative,</text>
<text x="392" y="188" font-size="13" fill="#111" font-weight="normal" text-anchor="start" font-family="Helvetica, Arial, sans-serif">differences it, keeps negative increments,</text>
<text x="392" y="206" font-size="13" fill="#111" font-weight="normal" text-anchor="start" font-family="Helvetica, Arial, sans-serif">averages members, weights cells by cos(lat).</text>
<text x="392" y="240" font-size="13" fill="#15803d" font-weight="bold" text-anchor="start" font-family="Helvetica, Arial, sans-serif">Delivers</text>
<rect x="398.0" y="256.0" width="26.7" height="26.7" fill="#c3967a" stroke="#fff" stroke-width="0.8"/>
<rect x="424.7" y="256.0" width="26.7" height="26.7" fill="#d1ae99" stroke="#fff" stroke-width="0.8"/>
<rect x="451.3" y="256.0" width="26.7" height="26.7" fill="#c4987d" stroke="#fff" stroke-width="0.8"/>
<rect x="478.0" y="256.0" width="26.7" height="26.7" fill="#b07550" stroke="#fff" stroke-width="0.8"/>
<rect x="504.7" y="256.0" width="26.7" height="26.7" fill="#b67e5d" stroke="#fff" stroke-width="0.8"/>
<rect x="531.3" y="256.0" width="26.7" height="26.7" fill="#9e5528" stroke="#fff" stroke-width="0.8"/>
<rect x="398.0" y="282.7" width="26.7" height="26.7" fill="#c19376" stroke="#fff" stroke-width="0.8"/>
<rect x="424.7" y="282.7" width="26.7" height="26.7" fill="#f7f1ed" stroke="#fff" stroke-width="0.8"/>
<rect x="451.3" y="282.7" width="26.7" height="26.7" fill="#f5ede9" stroke="#fff" stroke-width="0.8"/>
<rect x="478.0" y="282.7" width="26.7" height="26.7" fill="#a96941" stroke="#fff" stroke-width="0.8"/>
<rect x="504.7" y="282.7" width="26.7" height="26.7" fill="#c4987d" stroke="#fff" stroke-width="0.8"/>
<rect x="531.3" y="282.7" width="26.7" height="26.7" fill="#d9bdab" stroke="#fff" stroke-width="0.8"/>
<rect x="398.0" y="309.3" width="26.7" height="26.7" fill="#92400e" stroke="#fff" stroke-width="0.8"/>
<rect x="424.7" y="309.3" width="26.7" height="26.7" fill="#bd8b6d" stroke="#fff" stroke-width="0.8"/>
<rect x="451.3" y="309.3" width="26.7" height="26.7" fill="#e9d8ce" stroke="#fff" stroke-width="0.8"/>
<rect x="478.0" y="309.3" width="26.7" height="26.7" fill="#eee1d9" stroke="#fff" stroke-width="0.8"/>
<rect x="504.7" y="309.3" width="26.7" height="26.7" fill="#f4ece7" stroke="#fff" stroke-width="0.8"/>
<rect x="531.3" y="309.3" width="26.7" height="26.7" fill="#f5eee9" stroke="#fff" stroke-width="0.8"/>
<rect x="398.0" y="336.0" width="26.7" height="26.7" fill="#ac6d47" stroke="#fff" stroke-width="0.8"/>
<rect x="424.7" y="336.0" width="26.7" height="26.7" fill="#92400e" stroke="#fff" stroke-width="0.8"/>
<rect x="451.3" y="336.0" width="26.7" height="26.7" fill="#ab6b45" stroke="#fff" stroke-width="0.8"/>
<rect x="478.0" y="336.0" width="26.7" height="26.7" fill="#f8f2ef" stroke="#fff" stroke-width="0.8"/>
<rect x="504.7" y="336.0" width="26.7" height="26.7" fill="#feffff" stroke="#fff" stroke-width="0.8"/>
<rect x="531.3" y="336.0" width="26.7" height="26.7" fill="#cfab95" stroke="#fff" stroke-width="0.8"/>
<rect x="398.0" y="362.7" width="26.7" height="26.7" fill="#aa6a43" stroke="#fff" stroke-width="0.8"/>
<rect x="424.7" y="362.7" width="26.7" height="26.7" fill="#f1e7e0" stroke="#fff" stroke-width="0.8"/>
<rect x="451.3" y="362.7" width="26.7" height="26.7" fill="#cfab95" stroke="#fff" stroke-width="0.8"/>
<rect x="478.0" y="362.7" width="26.7" height="26.7" fill="#f8f3f0" stroke="#fff" stroke-width="0.8"/>
<rect x="504.7" y="362.7" width="26.7" height="26.7" fill="#ecddd4" stroke="#fff" stroke-width="0.8"/>
<rect x="531.3" y="362.7" width="26.7" height="26.7" fill="#f8f3ef" stroke="#fff" stroke-width="0.8"/>
<rect x="398.0" y="389.3" width="26.7" height="26.7" fill="#dcc1b1" stroke="#fff" stroke-width="0.8"/>
<rect x="424.7" y="389.3" width="26.7" height="26.7" fill="#ebdbd2" stroke="#fff" stroke-width="0.8"/>
<rect x="451.3" y="389.3" width="26.7" height="26.7" fill="#e6d3c8" stroke="#fff" stroke-width="0.8"/>
<rect x="478.0" y="389.3" width="26.7" height="26.7" fill="#f2e8e2" stroke="#fff" stroke-width="0.8"/>
<rect x="504.7" y="389.3" width="26.7" height="26.7" fill="#9fb4ee" stroke="#fff" stroke-width="0.8"/>
<rect x="531.3" y="389.3" width="26.7" height="26.7" fill="#bfcdf4" stroke="#fff" stroke-width="0.8"/>
<rect x="398.0" y="416.0" width="26.7" height="26.7" fill="#f8f2ef" stroke="#fff" stroke-width="0.8"/>
<rect x="424.7" y="416.0" width="26.7" height="26.7" fill="#f1e6df" stroke="#fff" stroke-width="0.8"/>
<rect x="451.3" y="416.0" width="26.7" height="26.7" fill="#e0c8ba" stroke="#fff" stroke-width="0.8"/>
<rect x="478.0" y="416.0" width="26.7" height="26.7" fill="#dbc0b0" stroke="#fff" stroke-width="0.8"/>
<rect x="504.7" y="416.0" width="26.7" height="26.7" fill="#cad6f6" stroke="#fff" stroke-width="0.8"/>
<rect x="531.3" y="416.0" width="26.7" height="26.7" fill="#e2e8fa" stroke="#fff" stroke-width="0.8"/>
<polygon points="402.4,267.6 436.2,260.4 526.9,280.0 526.9,379.6 494.9,432.9 466.4,402.7 404.2,367.1 400.7,331.6" fill="none" stroke="#111" stroke-width="1.6" stroke-dasharray="4 3"/>
<text x="398" y="460.6666666666667" font-size="11" fill="#111" font-weight="normal" text-anchor="start" font-family="Menlo, Consolas, monospace">results.zarr: change_mm[period, lat, lon]</text>
<rect x="578" y="270" width="22" height="14" fill="#92400e" stroke="#999" stroke-width="0.5"/>
<rect x="600" y="270" width="22" height="14" fill="#c8a086" stroke="#999" stroke-width="0.5"/>
<rect x="622" y="270" width="22" height="14" fill="#ffffff" stroke="#999" stroke-width="0.5"/>
<rect x="644" y="270" width="22" height="14" fill="#8ea6ec" stroke="#999" stroke-width="0.5"/>
<rect x="666" y="270" width="22" height="14" fill="#1d4ed8" stroke="#999" stroke-width="0.5"/>
<text x="578" y="300" font-size="10" fill="#555" font-weight="normal" text-anchor="start" font-family="Helvetica, Arial, sans-serif">−12</text>
<text x="678" y="300" font-size="10" fill="#555" font-weight="normal" text-anchor="start" font-family="Helvetica, Arial, sans-serif">+12 mm</text>
<text x="578" y="320" font-size="11" fill="#555" font-weight="normal" text-anchor="start" font-family="Helvetica, Arial, sans-serif">drier ← → wetter</text>
<text x="578" y="348" font-size="11" fill="#555" font-weight="normal" text-anchor="start" font-family="Helvetica, Arial, sans-serif">week of 27 Sep</text>
<rect x="392" y="482.6666666666667" width="302" height="118" rx="6" fill="#fff" stroke="#15803d"/>
<text x="400" y="500.6666666666667" font-size="11" fill="#15803d" font-weight="normal" text-anchor="start" font-family="Menlo, Consolas, monospace">answer.json</text>
<text x="400" y="518.6666666666667" font-size="11" fill="#111" font-weight="normal" text-anchor="start" font-family="Menlo, Consolas, monospace">regional_change_mm: [-4.2, 3.0]</text>
<text x="400" y="536.6666666666667" font-size="11" fill="#111" font-weight="normal" text-anchor="start" font-family="Menlo, Consolas, monospace">claims.direction: {27 Sep: drier,</text>
<text x="400" y="552.6666666666667" font-size="11" fill="#111" font-weight="normal" text-anchor="start" font-family="Menlo, Consolas, monospace">                   4 Oct: wetter}</text>
<text x="400" y="570.6666666666667" font-size="11" fill="#111" font-weight="normal" text-anchor="start" font-family="Menlo, Consolas, monospace">choices: "negative increments kept"</text>
<text x="400" y="588.6666666666667" font-size="11" fill="#111" font-weight="normal" text-anchor="start" font-family="Menlo, Consolas, monospace">run: python solve.py {input_dir} …</text>
<text x="400" y="622.6666666666667" font-size="11" fill="#111" font-weight="normal" text-anchor="start" font-family="Menlo, Consolas, monospace">solve.py        the code that made it</text>
<text x="400" y="640.6666666666667" font-size="11" fill="#111" font-weight="normal" text-anchor="start" font-family="Menlo, Consolas, monospace">report.md       what it did and what it means</text>
<text x="392" y="665" font-size="12" fill="#555" font-weight="normal" text-anchor="start" font-family="Helvetica, Arial, sans-serif">Any language, method and file layout</text>
<rect x="732" y="80" width="400" height="600" rx="10" fill="#ffedd5" stroke="#c2410c" stroke-width="2"/><rect x="732" y="80" width="400" height="40" rx="10" fill="#c2410c"/><rect x="732" y="108" width="400" height="12" fill="#c2410c"/><text x="746" y="107" fill="#fff" font-size="19" font-weight="bold">3</text><text x="772" y="107" fill="#fff" font-size="19" font-weight="bold">The controller checks</text>
<text x="746" y="148" font-size="13" fill="#c2410c" font-weight="bold" text-anchor="start" font-family="Helvetica, Arial, sans-serif">a. Compare with the reference under every reading</text>
<circle cx="754" cy="168" r="5" fill="#15803d"/>
<text x="764" y="172" font-size="12" fill="#111" font-weight="normal" text-anchor="start" font-family="Helvetica, Arial, sans-serif">accumulation differenced</text>
<circle cx="944" cy="168" r="5" fill="#b91c1c"/>
<text x="954" y="172" font-size="12" fill="#111" font-weight="normal" text-anchor="start" font-family="Helvetica, Arial, sans-serif">summed as daily</text>
<circle cx="754" cy="188" r="5" fill="#15803d"/>
<text x="764" y="192" font-size="12" fill="#111" font-weight="normal" text-anchor="start" font-family="Helvetica, Arial, sans-serif">negative increments kept</text>
<circle cx="944" cy="188" r="5" fill="#15803d"/>
<text x="954" y="192" font-size="12" fill="#111" font-weight="normal" text-anchor="start" font-family="Helvetica, Arial, sans-serif">clipped to zero</text>
<circle cx="754" cy="208" r="5" fill="#15803d"/>
<text x="764" y="212" font-size="12" fill="#111" font-weight="normal" text-anchor="start" font-family="Helvetica, Arial, sans-serif">same calendar dates</text>
<circle cx="944" cy="208" r="5" fill="#b91c1c"/>
<text x="954" y="212" font-size="12" fill="#111" font-weight="normal" text-anchor="start" font-family="Helvetica, Arial, sans-serif">same lead days</text>
<circle cx="754" cy="228" r="5" fill="#15803d"/>
<text x="764" y="232" font-size="12" fill="#111" font-weight="normal" text-anchor="start" font-family="Helvetica, Arial, sans-serif">cos(lat) weights</text>
<circle cx="944" cy="228" r="5" fill="#b91c1c"/>
<text x="954" y="232" font-size="12" fill="#111" font-weight="normal" text-anchor="start" font-family="Helvetica, Arial, sans-serif">plain mean</text>
<circle cx="754" cy="248" r="5" fill="#15803d"/>
<text x="764" y="252" font-size="12" fill="#111" font-weight="normal" text-anchor="start" font-family="Helvetica, Arial, sans-serif">window ends on day 7</text>
<circle cx="944" cy="248" r="5" fill="#b91c1c"/>
<text x="954" y="252" font-size="12" fill="#111" font-weight="normal" text-anchor="start" font-family="Helvetica, Arial, sans-serif">one day early</text>
<text x="746" y="280" font-size="12" fill="#111" font-weight="normal" text-anchor="start" font-family="Helvetica, Arial, sans-serif">64 combinations computed. The numbers match only</text>
<text x="746" y="296" font-size="12" fill="#111" font-weight="normal" text-anchor="start" font-family="Helvetica, Arial, sans-serif">accepted readings, with increments kept.</text>
<rect x="1042" y="278" width="70" height="20" rx="10" fill="#15803d"/><text x="1077.0" y="292" font-size="12" fill="#fff" font-weight="bold" text-anchor="middle" font-family="Helvetica, Arial, sans-serif">pass</text>
<text x="746" y="330" font-size="13" fill="#c2410c" font-weight="bold" text-anchor="start" font-family="Helvetica, Arial, sans-serif">b. Rerun the agent's own code</text>
<text x="746" y="350" font-size="12" fill="#111" font-weight="normal" text-anchor="start" font-family="Helvetica, Arial, sans-serif">on the same data → same answer</text>
<rect x="1042" y="332" width="70" height="20" rx="10" fill="#15803d"/><text x="1077.0" y="346" font-size="12" fill="#fff" font-weight="bold" text-anchor="middle" font-family="Helvetica, Arial, sans-serif">pass</text>
<text x="746" y="370" font-size="12" fill="#111" font-weight="normal" text-anchor="start" font-family="Helvetica, Arial, sans-serif">on changed data (rain added, dips injected)</text>
<text x="746" y="386" font-size="12" fill="#111" font-weight="normal" text-anchor="start" font-family="Helvetica, Arial, sans-serif">→ moves with the data, still an accepted reading</text>
<rect x="1042" y="368" width="70" height="20" rx="10" fill="#15803d"/><text x="1077.0" y="382" font-size="12" fill="#fff" font-weight="bold" text-anchor="middle" font-family="Helvetica, Arial, sans-serif">pass</text>
<text x="746" y="420" font-size="13" fill="#c2410c" font-weight="bold" text-anchor="start" font-family="Helvetica, Arial, sans-serif">c. Rules and claims</text>
<text x="746" y="440" font-size="12" fill="#111" font-weight="normal" text-anchor="start" font-family="Helvetica, Arial, sans-serif">change = current − previous; regional mean inside</text>
<text x="746" y="456" font-size="12" fill="#111" font-weight="normal" text-anchor="start" font-family="Helvetica, Arial, sans-serif">the cell range; "drier" follows from −4.2 mm</text>
<rect x="1042" y="438" width="70" height="20" rx="10" fill="#15803d"/><text x="1077.0" y="452" font-size="12" fill="#fff" font-weight="bold" text-anchor="middle" font-family="Helvetica, Arial, sans-serif">pass</text>
<text x="746" y="490" font-size="13" fill="#c2410c" font-weight="bold" text-anchor="start" font-family="Helvetica, Arial, sans-serif">d. Judge: Claude Opus 5.5, exact quotations</text>
<rect x="746" y="502" width="372" height="96" rx="6" fill="#fff" stroke="#c2410c"/>
<text x="754" y="522" font-size="11" fill="#333" font-weight="normal" text-anchor="start" font-family="Helvetica, Arial, sans-serif">Does the report say the same as the code and answer?</text>
<text x="754" y="539" font-size="11" fill="#333" font-weight="normal" text-anchor="start" font-family="Helvetica, Arial, sans-serif">report.md: “negative increments were kept”</text>
<text x="754" y="556" font-size="11" fill="#333" font-weight="normal" text-anchor="start" font-family="Helvetica, Arial, sans-serif">solve.py: no clip → consistent</text>
<text x="754" y="573" font-size="11" fill="#333" font-weight="normal" text-anchor="start" font-family="Helvetica, Arial, sans-serif">Does it overgeneralise? No: two issues, one box.</text>
<text x="754" y="590" font-size="11" fill="#333" font-weight="normal" text-anchor="start" font-family="Helvetica, Arial, sans-serif">Does it credit the data, the brief, its own choices? Yes.</text>
<rect x="1042" y="606" width="70" height="20" rx="10" fill="#15803d"/><text x="1077.0" y="620" font-size="12" fill="#fff" font-weight="bold" text-anchor="middle" font-family="Helvetica, Arial, sans-serif">pass</text>
<text x="746" y="665" font-size="12" fill="#555" font-weight="normal" text-anchor="start" font-family="Helvetica, Arial, sans-serif">Same checks for every system; spec certified by 5 tests</text>
<rect x="1156" y="80" width="260" height="600" rx="10" fill="#e5e7eb" stroke="#1f2937" stroke-width="2"/><rect x="1156" y="80" width="260" height="40" rx="10" fill="#1f2937"/><rect x="1156" y="108" width="260" height="12" fill="#1f2937"/><text x="1170" y="107" fill="#fff" font-size="19" font-weight="bold">4</text><text x="1196" y="107" fill="#fff" font-size="19" font-weight="bold">The result</text>
<rect x="1186" y="150" width="200" height="56" rx="28" fill="#15803d"/>
<text x="1286.0" y="186" font-size="28" fill="#fff" font-weight="bold" text-anchor="middle" font-family="Helvetica, Arial, sans-serif">PASS</text>
<text x="1170" y="240" font-size="13" fill="#1f2937" font-weight="bold" text-anchor="start" font-family="Helvetica, Arial, sans-serif">11 of 11 checks</text>
<circle cx="1180" cy="260" r="5" fill="#15803d"/>
<text x="1192" y="264" font-size="12" fill="#111" font-weight="normal" text-anchor="start" font-family="Helvetica, Arial, sans-serif">envelope</text>
<circle cx="1180" cy="280" r="5" fill="#15803d"/>
<text x="1192" y="284" font-size="12" fill="#111" font-weight="normal" text-anchor="start" font-family="Helvetica, Arial, sans-serif">variant match</text>
<circle cx="1180" cy="300" r="5" fill="#15803d"/>
<text x="1192" y="304" font-size="12" fill="#111" font-weight="normal" text-anchor="start" font-family="Helvetica, Arial, sans-serif">3 invariants</text>
<circle cx="1180" cy="320" r="5" fill="#15803d"/>
<text x="1192" y="324" font-size="12" fill="#111" font-weight="normal" text-anchor="start" font-family="Helvetica, Arial, sans-serif">2 probes</text>
<circle cx="1180" cy="340" r="5" fill="#15803d"/>
<text x="1192" y="344" font-size="12" fill="#111" font-weight="normal" text-anchor="start" font-family="Helvetica, Arial, sans-serif">1 claim</text>
<circle cx="1180" cy="360" r="5" fill="#15803d"/>
<text x="1192" y="364" font-size="12" fill="#111" font-weight="normal" text-anchor="start" font-family="Helvetica, Arial, sans-serif">3 judge questions</text>
<text x="1170" y="402" font-size="13" fill="#1f2937" font-weight="bold" text-anchor="start" font-family="Helvetica, Arial, sans-serif">Matched conventions</text>
<text x="1180" y="422" font-size="12" fill="#111" font-weight="normal" text-anchor="start" font-family="Helvetica, Arial, sans-serif">increments: kept</text>
<text x="1180" y="440" font-size="12" fill="#111" font-weight="normal" text-anchor="start" font-family="Helvetica, Arial, sans-serif">weights: cos(lat)</text>
<text x="1180" y="458" font-size="12" fill="#111" font-weight="normal" text-anchor="start" font-family="Helvetica, Arial, sans-serif">dates: same period</text>
<text x="1170" y="492" font-size="13" fill="#1f2937" font-weight="bold" text-anchor="start" font-family="Helvetica, Arial, sans-serif">Recorded with it</text>
<text x="1180" y="512" font-size="12" fill="#111" font-weight="normal" text-anchor="start" font-family="Helvetica, Arial, sans-serif">52 s, 107,751 tokens</text>
<text x="1180" y="530" font-size="12" fill="#111" font-weight="normal" text-anchor="start" font-family="Helvetica, Arial, sans-serif">model, harness, substrate</text>
<text x="1180" y="548" font-size="12" fill="#111" font-weight="normal" text-anchor="start" font-family="Helvetica, Arial, sans-serif">input and artifact hashes</text>
<text x="1180" y="566" font-size="12" fill="#111" font-weight="normal" text-anchor="start" font-family="Helvetica, Arial, sans-serif">the full tool trace</text>
<text x="1180" y="584" font-size="12" fill="#111" font-weight="normal" text-anchor="start" font-family="Helvetica, Arial, sans-serif">judge id and its quotes</text>
<text x="1170" y="620" font-size="13" fill="#1f2937" font-weight="bold" text-anchor="start" font-family="Helvetica, Arial, sans-serif">The other outcomes</text>
<rect x="1180" y="632" width="50" height="20" rx="10" fill="#b91c1c"/><text x="1205.0" y="646" font-size="12" fill="#fff" font-weight="bold" text-anchor="middle" font-family="Helvetica, Arial, sans-serif">fail</text>
<text x="1238" y="650" font-size="11" fill="#111" font-weight="normal" text-anchor="start" font-family="Helvetica, Arial, sans-serif">a named pitfall or defect</text>
<rect x="1180" y="656" width="84" height="20" rx="10" fill="#6b7280"/><text x="1222.0" y="670" font-size="12" fill="#fff" font-weight="bold" text-anchor="middle" font-family="Helvetica, Arial, sans-serif">unresolved</text>
<text x="1272" y="674" font-size="11" fill="#111" font-weight="normal" text-anchor="start" font-family="Helvetica, Arial, sans-serif">an outside cause</text>
<path d="M 354 380 L 378 380" stroke="#333" stroke-width="2.5" fill="none" marker-end="url(#arrow)"/>
<path d="M 708 380 L 732 380" stroke="#333" stroke-width="2.5" fill="none" marker-end="url(#arrow)"/>
<path d="M 1132 380 L 1156 380" stroke="#333" stroke-width="2.5" fill="none" marker-end="url(#arrow)"/>
<text x="24" y="710" font-size="12" fill="#444" font-weight="normal" text-anchor="start" font-family="Helvetica, Arial, sans-serif">Three of nine earlier attempts on this template placed the 7-day window one day early. The reference under that reading matched their numbers exactly,</text>
<text x="24" y="728" font-size="12" fill="#444" font-weight="normal" text-anchor="start" font-family="Helvetica, Arial, sans-serif">so each failed with the pitfall named. On the seasonal task the judge, reading the code an agent cited for its calibration, found a defect that the numbers</text>
<text x="24" y="746" font-size="12" fill="#444" font-weight="normal" text-anchor="start" font-family="Helvetica, Arial, sans-serif">had not isolated. Every outcome keeps its evidence. A second episode on another box can start from this submission.</text>
<text x="24" y="782" font-size="11" fill="#666" font-weight="normal" text-anchor="start" font-family="Helvetica, Arial, sans-serif">Terms: a pitfall is a known wrong method with a computable wrong answer; a probe reruns the agent's code on changed data; the controller is the trusted program that runs the agent, holds the references and runs the checks.</text>
</svg>